HIERARCHY
ROOT root
{
	OFFSET	0	13.1	24.9
	CHANNELS 6  Xposition Yposition Zposition Xrotation Yrotation Zrotation
	JOINT spine_1
	{
		OFFSET	0	9.99999	0
		CHANNELS 3  Xrotation Yrotation Zrotation
		JOINT spine_2
		{
			OFFSET	0	112	-10
			CHANNELS 3  Xrotation Yrotation Zrotation
			JOINT spine_3
			{
				OFFSET	0	206.5	19.3
				CHANNELS 3  Xrotation Yrotation Zrotation
				JOINT spine_4
				{
					OFFSET	0	110.4	14.6
					CHANNELS 3  Xrotation Yrotation Zrotation
					JOINT neck_1
					{
						OFFSET	0	71.8	-50.3
						CHANNELS 3  Xrotation Yrotation Zrotation
						JOINT neck_2
						{
							OFFSET	0	86.2	-25.8
							CHANNELS 3  Xrotation Yrotation Zrotation
							JOINT head_ee
							{
								OFFSET	0	179.8	-8.7
								CHANNELS 3  Xrotation Yrotation Zrotation
								End Site
								{
									OFFSET	1	0	0
								}
							}
						}
					}
					JOINT left_clavicle
					{
						OFFSET	-43.2	22.4	-70.8
						CHANNELS 3  Xrotation Yrotation Zrotation
						JOINT left_shoulder
						{
							OFFSET	-93.9	-5.79999	48.7
							CHANNELS 3  Xrotation Yrotation Zrotation
							JOINT left_elbow
							{
								OFFSET	-291.4	-30.8	15.2
								CHANNELS 3  Xrotation Yrotation Zrotation
								JOINT left_lowarm_twist
								{
									OFFSET	-110.7	-3.89999	13.6
									CHANNELS 3  Xrotation Yrotation Zrotation
									JOINT left_hand
									{
										OFFSET	-110.7	-3.89999	13.6
										CHANNELS 3  Xrotation Yrotation Zrotation
										JOINT left_ee
										{
											OFFSET	-80.8	-5.10001	12.1
											CHANNELS 3  Xrotation Yrotation Zrotation
											End Site
											{
												OFFSET	1	0	0
											}
										}
									}
								}
							}
						}
					}
					JOINT right_clavicle
					{
						OFFSET	43.2	22.4	-70.8
						CHANNELS 3  Xrotation Yrotation Zrotation
						JOINT right_shoulder
						{
							OFFSET	93.9	-5.79999	48.7
							CHANNELS 3  Xrotation Yrotation Zrotation
							JOINT right_elbow
							{
								OFFSET	291.4	-30.8	15.2
								CHANNELS 3  Xrotation Yrotation Zrotation
								JOINT right_lowarm_twist
								{
									OFFSET	110.7	-3.89999	13.6
									CHANNELS 3  Xrotation Yrotation Zrotation
									JOINT right_hand
									{
										OFFSET	110.7	-3.89999	13.6
										CHANNELS 3  Xrotation Yrotation Zrotation
										JOINT right_ee
										{
											OFFSET	80.8	-5.10001	12.1
											CHANNELS 3  Xrotation Yrotation Zrotation
											End Site
											{
												OFFSET	1	0	0
											}
										}
									}
								}
							}
						}
					}
				}
			}
		}
	}
	JOINT left_hip
	{
		OFFSET	-82.8	-127.5	0.300001
		CHANNELS 3  Xrotation Yrotation Zrotation
		JOINT left_knee
		{
			OFFSET	-28.2	-396.7	2.2
			CHANNELS 3  Xrotation Yrotation Zrotation
			JOINT left_ankle
			{
				OFFSET	-11.7	-411.3	35.4
				CHANNELS 3  Xrotation Yrotation Zrotation
				JOINT left_toes
				{
					OFFSET	0	-60	-88.6
					CHANNELS 3  Xrotation Yrotation Zrotation
					JOINT left_foot_ee
					{
						OFFSET	-22.5	-16.5	-42.2
						CHANNELS 3  Xrotation Yrotation Zrotation
						End Site
						{
							OFFSET	1	0	0
						}
					}
				}
			}
		}
	}
	JOINT right_hip
	{
		OFFSET	82.8	-127.5	0.300001
		CHANNELS 3  Xrotation Yrotation Zrotation
		JOINT right_knee
		{
			OFFSET	28.2	-396.7	2.2
			CHANNELS 3  Xrotation Yrotation Zrotation
			JOINT right_ankle
			{
				OFFSET	11.7	-411.3	35.4
				CHANNELS 3  Xrotation Yrotation Zrotation
				JOINT right_toes
				{
					OFFSET	0	-60	-88.6
					CHANNELS 3  Xrotation Yrotation Zrotation
					JOINT right_foot_ee
					{
						OFFSET	22.5	-16.5	-42.2
						CHANNELS 3  Xrotation Yrotation Zrotation
						End Site
						{
							OFFSET	1	0	0
						}
					}
				}
			}
		}
	}
}
MOTION
Frames: 7
Frame Time: 0.02
3095.71 751.91 -1212.49 -21.098 62.6459 15.9786 6.82839 0.760553 4.70188 6.84057 0.460163 4.74063 6.86176 0.0233042 4.7628 6.83095 0.774365 4.69963 -13.4524 19.0038 0.109132 -14.5453 36.1572 6.44761 -0.0 0.0 -0.0 -8.76689 15.1696 -12.5762 -33.9058 -26.3026 68.8429 0.904613 -24.1377 0.193422 16.058 0.283685 -2.02496 0.266515 -1.55884 1.12812 -0.0 0.0 -0.0 12.034 7.0402 -24.3088 -0.566632 50.4967 -71.2458 1.0654 27.823 -0.263895 58.6127 1.65199 6.97848 -0.376217 -22.704 -6.88721 0.0 0.0 0.0 6.03275 -1.1418 10.3909 4.58272 -0.215659 -0.669854 36.6065 -7.94556 -4.67675 -34.7637 0.0 0.0 -0.0 0.0 -0.0 26.0894 12.2132 2.29992 -14.7277 -0.321173 -2.23111 22.2938 -2.2722 3.02083 -2.84248 0.0 0.0 0.0 0.0 0.0 
3095.57 751.438 -1213.93 -21.6679 63.9083 16.9787 6.84801 0.644077 4.67317 6.86009 0.345742 4.70459 6.87179 -0.0868864 4.71645 6.84137 0.658252 4.6712 -14.2882 18.8738 -0.0946242 -15.5213 36.1036 6.53138 -0.0 0.0 -0.0 -9.22571 15.6054 -13.2078 -34.0368 -26.0038 68.9226 0.930131 -24.738 0.203979 16.1699 0.283657 -2.03924 0.157836 -1.00771 0.631349 -0.0 0.0 -0.0 12.0844 7.53153 -24.4337 0.915108 50.501 -71.3865 1.05494 27.5903 -0.259031 58.5197 1.64393 6.96971 -0.383661 -23.3555 -7.09811 0.0 0.0 0.0 5.69046 -1.92904 10.0738 4.84292 -0.229508 -0.707357 36.1016 -8.24065 -4.6347 -35.1162 0.0 0.0 -0.0 0.0 -0.0 27.6406 11.7886 1.20439 -12.8822 -0.312529 -1.94809 23.3555 -0.404564 3.1575 -2.91829 0.0 0.0 0.0 0.0 0.0 
3087.35 750.086 -1211.52 -21.6204 64.9926 16.887 6.86685 0.598045 4.58189 6.87848 0.305593 4.61058 6.88699 -0.117139 4.61919 6.85775 0.613067 4.57991 -14.6841 18.2142 -0.0595384 -15.8794 34.8528 6.43176 -0.0 0.0 -0.0 -9.70783 15.9272 -13.9174 -33.7785 -25.4344 69.8724 0.945788 -25.1034 0.210576 16.5209 0.28339 -2.08408 0.133206 -0.583101 0.644893 -0.0 0.0 -0.0 11.8356 7.69669 -23.8806 1.78136 50.2415 -70.7965 1.04923 27.4629 -0.256393 59.7938 1.75561 7.08888 0.135538 -20.6626 -9.13352 0.0 0.0 0.0 4.61485 -2.00233 10.2079 5.53541 -0.267194 -0.806863 35.9223 -8.42474 -4.6212 -35.1311 0.0 0.0 -0.0 0.0 -0.0 30.6062 11.5825 1.06837 -10.8205 -0.2921 -1.63245 18.773 -1.25954 2.59145 -3.34324 0.0 0.0 0.0 0.0 0.0 
3084.25 752.685 -1209.89 -23.1229 65.9241 18.3267 6.87175 0.599519 4.62769 6.88361 0.304158 4.65638 6.89191 -0.122366 4.66468 6.86209 0.615066 4.62566 -14.8946 18.418 -0.351802 -16.1731 35.428 6.33236 -0.0 0.0 -0.0 -9.89759 16.2583 -14.1152 -33.7749 -26.1645 69.7678 0.959554 -25.4229 0.216452 16.4112 0.283503 -2.07006 0.10512 -0.283019 0.583152 -0.0 0.0 -0.0 12.0245 7.66732 -24.3025 2.49911 50.1348 -70.299 1.04299 27.3231 -0.253518 58.972 1.68327 7.01229 -0.140855 -22.2074 -8.07279 0.0 0.0 0.0 4.115 -2.02779 10.7402 5.46894 -0.263525 -0.797331 35.6211 -8.54615 -4.5947 -35.1613 0.0 0.0 -0.0 0.0 -0.0 33.3744 11.1138 0.392138 -9.52661 -0.273482 -1.43478 20.7196 0.341125 2.84309 -3.33838 0.0 0.0 0.0 0.0 0.0 
3075.84 750.27 -1210.28 -23.4714 66.2885 18.3235 6.85791 0.641708 4.57217 6.86947 0.349784 4.60365 6.88157 -0.0727927 4.61632 6.85244 0.656408 4.57009 -14.9443 18.2071 -0.651208 -16.2109 35.2018 5.9852 -0.0 0.0 -0.0 -10.1985 16.5684 -14.5098 -33.9806 -25.9685 69.8554 0.9657 -25.565 0.219097 16.5852 0.283311 -2.09228 0.0800958 0.0166164 0.541843 -0.0 0.0 -0.0 11.9929 7.69151 -24.2321 3.11447 50.0433 -69.9284 1.04182 27.297 -0.252982 59.1744 1.70098 7.03125 -0.0205556 -21.664 -8.57724 0.0 0.0 0.0 3.72653 -2.04174 11.0841 5.76773 -0.280108 -0.840146 35.3776 -8.55762 -4.5714 -35.2301 0.0 0.0 -0.0 0.0 -0.0 34.0112 10.6856 0.598353 -8.85141 -0.261995 -1.33181 19.5528 0.396874 2.69847 -3.45316 0.0 0.0 0.0 0.0 0.0 
3071.5 751.234 -1213.66 -24.7036 67.207 19.701 6.83128 0.529257 4.57927 6.84291 0.237109 4.6036 6.84607 -0.188215 4.60586 6.81688 0.540777 4.57793 -15.6403 17.9649 -0.586401 -16.9786 34.7417 6.19609 -0.0 0.0 -0.0 -10.2485 16.2532 -14.7244 -34.0795 -26.1725 70.1524 0.961888 -25.4769 0.217454 16.6913 0.283161 -2.10584 0.0920052 0.3963 0.780698 -0.0 0.0 -0.0 11.9566 7.78922 -24.153 3.75551 49.9445 -69.7979 1.14855 29.637 -0.303865 59.6017 1.7386 7.07107 0.228697 -20.6744 -9.69618 0.0 0.0 0.0 3.13525 -2.06813 10.6827 6.38954 -0.315335 -0.928971 35.1698 -8.54734 -4.551 -35.3791 0.0 0.0 -0.0 0.0 -0.0 34.9055 10.5328 0.426552 -8.34806 -0.252642 -1.25513 17.5931 0.327676 2.44977 -3.84258 0.0 0.0 0.0 0.0 0.0 
3064.92 752.799 -1212.27 -24.9246 67.2158 19.7286 6.7789 0.653786 4.52487 6.79021 0.364838 4.55721 6.8038 -0.0597163 4.57137 6.77526 0.662245 4.52364 -15.4345 17.9275 -0.515549 -16.7289 34.618 6.16759 -0.0 0.0 -0.0 -10.4676 16.772 -14.8905 -34.2093 -25.7422 70.1527 0.971714 -25.7038 0.221698 17.2005 0.282091 -2.17087 0.064324 0.694524 0.721192 -0.0 0.0 -0.0 11.4123 8.05994 -22.9445 4.63257 49.8203 -70.2739 1.18834 30.4828 -0.323796 59.8091 1.75696 7.09029 0.399224 -19.7726 -10.3978 0.0 0.0 0.0 2.58686 -1.58757 11.1022 6.31575 -0.311104 -0.91845 36.8226 -7.99053 -4.69789 -35.3717 0.0 0.0 -0.0 0.0 -0.0 35.9121 10.0625 0.374482 -7.91058 -0.243966 -1.18856 16.2316 0.265217 2.27353 -4.18418 0.0 0.0 0.0 0.0 0.0 
